<mxfile host="app.diagrams.net" modified="2021-01-14T07:32:29.050Z" agent="5.0 (Windows NT 10.0; Win64; x64) AppleWebKit/537.36 (KHTML, like Gecko) Chrome/87.0.4280.141 Safari/537.36" etag="zMdwd0IvJEX3dyTtT7ct" version="14.0.0" type="github">
  <diagram id="kgpKYQtTHZ0yAKxKKP6v" name="Page-1">
    <mxGraphModel dx="1915" dy="436" grid="1" gridSize="10" guides="1" tooltips="1" connect="1" arrows="1" fold="1" page="1" pageScale="1" pageWidth="850" pageHeight="1100" math="0" shadow="0">
      <root>
        <mxCell id="0" />
        <mxCell id="1" parent="0" />
        <mxCell id="l18J8dOt-pE66eqyuZIl-2" value="" style="shape=umlLifeline;participant=umlActor;perimeter=lifelinePerimeter;whiteSpace=wrap;html=1;container=1;collapsible=0;recursiveResize=0;verticalAlign=top;spacingTop=36;outlineConnect=0;" vertex="1" parent="1">
          <mxGeometry x="120" y="80" width="20" height="2040" as="geometry" />
        </mxCell>
        <mxCell id="l18J8dOt-pE66eqyuZIl-55" value="" style="html=1;points=[];perimeter=orthogonalPerimeter;" vertex="1" parent="l18J8dOt-pE66eqyuZIl-2">
          <mxGeometry x="5" y="60" width="10" height="1950" as="geometry" />
        </mxCell>
        <mxCell id="l18J8dOt-pE66eqyuZIl-4" value=":Object" style="shape=umlLifeline;perimeter=lifelinePerimeter;whiteSpace=wrap;html=1;container=1;collapsible=0;recursiveResize=0;outlineConnect=0;" vertex="1" parent="1">
          <mxGeometry x="680" y="80" width="100" height="2040" as="geometry" />
        </mxCell>
        <mxCell id="l18J8dOt-pE66eqyuZIl-36" value="" style="html=1;points=[];perimeter=orthogonalPerimeter;" vertex="1" parent="l18J8dOt-pE66eqyuZIl-4">
          <mxGeometry x="45" y="320" width="10" height="80" as="geometry" />
        </mxCell>
        <mxCell id="l18J8dOt-pE66eqyuZIl-97" value="" style="html=1;points=[];perimeter=orthogonalPerimeter;strokeColor=#000000;" vertex="1" parent="l18J8dOt-pE66eqyuZIl-4">
          <mxGeometry x="45" y="1590" width="10" height="80" as="geometry" />
        </mxCell>
        <mxCell id="l18J8dOt-pE66eqyuZIl-5" value=":Object" style="shape=umlLifeline;perimeter=lifelinePerimeter;whiteSpace=wrap;html=1;container=1;collapsible=0;recursiveResize=0;outlineConnect=0;" vertex="1" parent="1">
          <mxGeometry x="480" y="80" width="100" height="2040" as="geometry" />
        </mxCell>
        <mxCell id="l18J8dOt-pE66eqyuZIl-24" value="" style="html=1;points=[];perimeter=orthogonalPerimeter;" vertex="1" parent="l18J8dOt-pE66eqyuZIl-5">
          <mxGeometry x="45" y="200" width="10" height="80" as="geometry" />
        </mxCell>
        <mxCell id="l18J8dOt-pE66eqyuZIl-6" value=":Object" style="shape=umlLifeline;perimeter=lifelinePerimeter;whiteSpace=wrap;html=1;container=1;collapsible=0;recursiveResize=0;outlineConnect=0;" vertex="1" parent="1">
          <mxGeometry x="280" y="80" width="100" height="2040" as="geometry" />
        </mxCell>
        <mxCell id="l18J8dOt-pE66eqyuZIl-7" value="" style="html=1;points=[];perimeter=orthogonalPerimeter;" vertex="1" parent="l18J8dOt-pE66eqyuZIl-6">
          <mxGeometry x="45" y="80" width="10" height="80" as="geometry" />
        </mxCell>
        <mxCell id="l18J8dOt-pE66eqyuZIl-14" value="" style="endArrow=open;endFill=1;endSize=12;html=1;" edge="1" parent="1" target="l18J8dOt-pE66eqyuZIl-6">
          <mxGeometry width="160" relative="1" as="geometry">
            <mxPoint x="140" y="160" as="sourcePoint" />
            <mxPoint x="290" y="160" as="targetPoint" />
          </mxGeometry>
        </mxCell>
        <mxCell id="l18J8dOt-pE66eqyuZIl-15" value="Spezifiziert einen Dateipfad" style="text;html=1;align=center;verticalAlign=middle;resizable=0;points=[];autosize=1;" vertex="1" parent="1">
          <mxGeometry x="150" y="140" width="160" height="20" as="geometry" />
        </mxCell>
        <mxCell id="l18J8dOt-pE66eqyuZIl-20" value="Dateipfad" style="text;html=1;align=center;verticalAlign=middle;resizable=0;points=[];autosize=1;" vertex="1" parent="1">
          <mxGeometry x="225" y="210" width="70" height="20" as="geometry" />
        </mxCell>
        <mxCell id="l18J8dOt-pE66eqyuZIl-30" value="" style="endArrow=open;endFill=1;endSize=12;html=1;entryX=-0.08;entryY=0;entryDx=0;entryDy=0;entryPerimeter=0;" edge="1" parent="1" target="l18J8dOt-pE66eqyuZIl-24">
          <mxGeometry width="160" relative="1" as="geometry">
            <mxPoint x="150" y="280" as="sourcePoint" />
            <mxPoint x="525" y="280" as="targetPoint" />
            <Array as="points">
              <mxPoint x="140" y="280" />
              <mxPoint x="150" y="280" />
            </Array>
          </mxGeometry>
        </mxCell>
        <mxCell id="l18J8dOt-pE66eqyuZIl-26" value="return" style="html=1;verticalAlign=bottom;endArrow=open;dashed=1;endSize=8;" edge="1" parent="1">
          <mxGeometry x="0.4981" y="-10" relative="1" as="geometry">
            <mxPoint x="140" y="360" as="targetPoint" />
            <mxPoint x="530" y="360" as="sourcePoint" />
            <Array as="points">
              <mxPoint x="430" y="360" />
            </Array>
            <mxPoint as="offset" />
          </mxGeometry>
        </mxCell>
        <mxCell id="l18J8dOt-pE66eqyuZIl-31" value="return" style="html=1;verticalAlign=bottom;endArrow=open;dashed=1;endSize=8;" edge="1" parent="1" source="l18J8dOt-pE66eqyuZIl-6">
          <mxGeometry x="0.295" y="-10" relative="1" as="geometry">
            <mxPoint x="250" y="240" as="sourcePoint" />
            <mxPoint x="140" y="240" as="targetPoint" />
            <Array as="points">
              <mxPoint x="300" y="240" />
            </Array>
            <mxPoint x="1" as="offset" />
          </mxGeometry>
        </mxCell>
        <mxCell id="l18J8dOt-pE66eqyuZIl-32" value="bestätigen" style="text;html=1;align=center;verticalAlign=middle;resizable=0;points=[];autosize=1;" vertex="1" parent="1">
          <mxGeometry x="255" y="330" width="70" height="20" as="geometry" />
        </mxCell>
        <mxCell id="l18J8dOt-pE66eqyuZIl-35" value="Anlegen einer neuen Datenbank" style="text;html=1;align=center;verticalAlign=middle;resizable=0;points=[];autosize=1;" vertex="1" parent="1">
          <mxGeometry x="230" y="260" width="190" height="20" as="geometry" />
        </mxCell>
        <mxCell id="l18J8dOt-pE66eqyuZIl-39" value="" style="endArrow=open;endFill=1;endSize=12;html=1;" edge="1" parent="1" target="l18J8dOt-pE66eqyuZIl-4">
          <mxGeometry width="160" relative="1" as="geometry">
            <mxPoint x="150" y="400" as="sourcePoint" />
            <mxPoint x="290" y="400" as="targetPoint" />
            <Array as="points">
              <mxPoint x="140" y="400" />
            </Array>
          </mxGeometry>
        </mxCell>
        <mxCell id="l18J8dOt-pE66eqyuZIl-40" value="Festlegen der Zugangsdaten" style="text;html=1;align=center;verticalAlign=middle;resizable=0;points=[];autosize=1;" vertex="1" parent="1">
          <mxGeometry x="340" y="380" width="170" height="20" as="geometry" />
        </mxCell>
        <mxCell id="l18J8dOt-pE66eqyuZIl-41" value="Loop" style="shape=umlFrame;whiteSpace=wrap;html=1;" vertex="1" parent="1">
          <mxGeometry x="40" y="500" width="760" height="610" as="geometry" />
        </mxCell>
        <mxCell id="l18J8dOt-pE66eqyuZIl-42" value="" style="html=1;points=[];perimeter=orthogonalPerimeter;" vertex="1" parent="1">
          <mxGeometry x="325" y="580" width="10" height="80" as="geometry" />
        </mxCell>
        <mxCell id="l18J8dOt-pE66eqyuZIl-45" value="return" style="html=1;verticalAlign=bottom;endArrow=open;dashed=1;endSize=8;exitX=0.64;exitY=1.01;exitDx=0;exitDy=0;exitPerimeter=0;" edge="1" parent="1" source="l18J8dOt-pE66eqyuZIl-42">
          <mxGeometry x="0.2229" relative="1" as="geometry">
            <mxPoint x="210" y="630" as="sourcePoint" />
            <mxPoint x="140" y="661" as="targetPoint" />
            <mxPoint as="offset" />
          </mxGeometry>
        </mxCell>
        <mxCell id="l18J8dOt-pE66eqyuZIl-46" value="" style="endArrow=open;endFill=1;endSize=12;html=1;entryX=0.72;entryY=-0.005;entryDx=0;entryDy=0;entryPerimeter=0;" edge="1" parent="1" target="l18J8dOt-pE66eqyuZIl-42">
          <mxGeometry width="160" relative="1" as="geometry">
            <mxPoint x="140" y="580" as="sourcePoint" />
            <mxPoint x="290" y="560" as="targetPoint" />
          </mxGeometry>
        </mxCell>
        <mxCell id="l18J8dOt-pE66eqyuZIl-48" value="Datenbank auswählen" style="text;html=1;align=center;verticalAlign=middle;resizable=0;points=[];autosize=1;" vertex="1" parent="1">
          <mxGeometry x="165" y="555" width="130" height="20" as="geometry" />
        </mxCell>
        <mxCell id="l18J8dOt-pE66eqyuZIl-49" value="&amp;nbsp; &amp;nbsp; &amp;nbsp; &amp;nbsp; &amp;nbsp; &amp;nbsp; &amp;nbsp; &amp;nbsp; &amp;nbsp; &amp;nbsp; &amp;nbsp; &amp;nbsp; &amp;nbsp; &amp;nbsp; &amp;nbsp; &amp;nbsp; &amp;nbsp; &amp;nbsp; &amp;nbsp; &amp;nbsp; &amp;nbsp; &amp;nbsp; &amp;nbsp;[eine neue Datenbank angelegt]" style="text;html=1;align=center;verticalAlign=middle;resizable=0;points=[];autosize=1;" vertex="1" parent="1">
          <mxGeometry x="-20" y="500" width="340" height="20" as="geometry" />
        </mxCell>
        <mxCell id="l18J8dOt-pE66eqyuZIl-50" value="bestätigen" style="text;html=1;align=center;verticalAlign=middle;resizable=0;points=[];autosize=1;" vertex="1" parent="1">
          <mxGeometry x="230" y="640" width="70" height="20" as="geometry" />
        </mxCell>
        <mxCell id="l18J8dOt-pE66eqyuZIl-56" value="Alt" style="shape=umlFrame;whiteSpace=wrap;html=1;strokeColor=#000000;" vertex="1" parent="1">
          <mxGeometry x="50" y="680" width="740" height="410" as="geometry" />
        </mxCell>
        <mxCell id="l18J8dOt-pE66eqyuZIl-57" value="[Zugriff möglich]" style="text;html=1;align=center;verticalAlign=middle;resizable=0;points=[];autosize=1;" vertex="1" parent="1">
          <mxGeometry x="140" y="680" width="100" height="20" as="geometry" />
        </mxCell>
        <mxCell id="l18J8dOt-pE66eqyuZIl-58" value="" style="html=1;points=[];perimeter=orthogonalPerimeter;" vertex="1" parent="1">
          <mxGeometry x="725" y="720" width="10" height="80" as="geometry" />
        </mxCell>
        <mxCell id="l18J8dOt-pE66eqyuZIl-59" value="" style="html=1;points=[];perimeter=orthogonalPerimeter;" vertex="1" parent="1">
          <mxGeometry x="725" y="830" width="10" height="80" as="geometry" />
        </mxCell>
        <mxCell id="l18J8dOt-pE66eqyuZIl-60" value="" style="endArrow=open;endFill=1;endSize=12;html=1;" edge="1" parent="1">
          <mxGeometry width="160" relative="1" as="geometry">
            <mxPoint x="140" y="720" as="sourcePoint" />
            <mxPoint x="725" y="720" as="targetPoint" />
          </mxGeometry>
        </mxCell>
        <mxCell id="l18J8dOt-pE66eqyuZIl-61" value="" style="endArrow=open;endFill=1;endSize=12;html=1;" edge="1" parent="1">
          <mxGeometry width="160" relative="1" as="geometry">
            <mxPoint x="140" y="830" as="sourcePoint" />
            <mxPoint x="725" y="830" as="targetPoint" />
          </mxGeometry>
        </mxCell>
        <mxCell id="l18J8dOt-pE66eqyuZIl-64" value="zugehörige Zustandsdaten abfragen" style="text;html=1;align=center;verticalAlign=middle;resizable=0;points=[];autosize=1;" vertex="1" parent="1">
          <mxGeometry x="325" y="700" width="210" height="20" as="geometry" />
        </mxCell>
        <mxCell id="l18J8dOt-pE66eqyuZIl-65" value="&lt;span style=&quot;color: rgb(0 , 0 , 0) ; font-family: &amp;#34;helvetica&amp;#34; ; font-size: 12px ; font-style: normal ; font-weight: 400 ; letter-spacing: normal ; text-align: center ; text-indent: 0px ; text-transform: none ; word-spacing: 0px ; background-color: rgb(248 , 249 , 250) ; display: inline ; float: none&quot;&gt;zugehörige Zustandsdaten prüfen&lt;/span&gt;" style="text;html=1;align=center;verticalAlign=middle;resizable=0;points=[];autosize=1;" vertex="1" parent="1">
          <mxGeometry x="335" y="810" width="190" height="20" as="geometry" />
        </mxCell>
        <mxCell id="l18J8dOt-pE66eqyuZIl-69" value="" style="line;strokeWidth=1;fillColor=none;align=left;verticalAlign=middle;spacingTop=-1;spacingLeft=3;spacingRight=3;rotatable=0;labelPosition=right;points=[];portConstraint=eastwest;" vertex="1" parent="1">
          <mxGeometry x="50" y="930" width="740" height="8" as="geometry" />
        </mxCell>
        <mxCell id="l18J8dOt-pE66eqyuZIl-70" value="[else]" style="text;html=1;align=center;verticalAlign=middle;resizable=0;points=[];autosize=1;" vertex="1" parent="1">
          <mxGeometry x="140" y="938" width="40" height="20" as="geometry" />
        </mxCell>
        <mxCell id="l18J8dOt-pE66eqyuZIl-71" value="" style="html=1;points=[];perimeter=orthogonalPerimeter;strokeColor=#000000;" vertex="1" parent="1">
          <mxGeometry x="525" y="980" width="10" height="80" as="geometry" />
        </mxCell>
        <mxCell id="l18J8dOt-pE66eqyuZIl-73" value="return" style="html=1;verticalAlign=bottom;endArrow=open;dashed=1;endSize=8;entryX=0.122;entryY=0.732;entryDx=0;entryDy=0;entryPerimeter=0;" edge="1" parent="1" target="l18J8dOt-pE66eqyuZIl-56">
          <mxGeometry x="0.1061" relative="1" as="geometry">
            <mxPoint x="520" y="980" as="sourcePoint" />
            <mxPoint x="440" y="980" as="targetPoint" />
            <mxPoint as="offset" />
          </mxGeometry>
        </mxCell>
        <mxCell id="l18J8dOt-pE66eqyuZIl-74" value="Fehlermeldung" style="text;html=1;align=center;verticalAlign=middle;resizable=0;points=[];autosize=1;" vertex="1" parent="1">
          <mxGeometry x="335" y="958" width="100" height="20" as="geometry" />
        </mxCell>
        <mxCell id="l18J8dOt-pE66eqyuZIl-75" value="Loop" style="shape=umlFrame;whiteSpace=wrap;html=1;strokeColor=#000000;" vertex="1" parent="1">
          <mxGeometry x="40" y="1140" width="760" height="500" as="geometry" />
        </mxCell>
        <mxCell id="l18J8dOt-pE66eqyuZIl-76" value="" style="html=1;points=[];perimeter=orthogonalPerimeter;strokeColor=#000000;" vertex="1" parent="1">
          <mxGeometry x="725" y="1200" width="10" height="80" as="geometry" />
        </mxCell>
        <mxCell id="l18J8dOt-pE66eqyuZIl-77" value="[neue Dantenbank ausgewählt]" style="text;html=1;align=center;verticalAlign=middle;resizable=0;points=[];autosize=1;" vertex="1" parent="1">
          <mxGeometry x="130" y="1140" width="180" height="20" as="geometry" />
        </mxCell>
        <mxCell id="l18J8dOt-pE66eqyuZIl-81" value="Alt" style="shape=umlFrame;whiteSpace=wrap;html=1;strokeColor=#000000;" vertex="1" parent="1">
          <mxGeometry x="50" y="1300" width="740" height="330" as="geometry" />
        </mxCell>
        <mxCell id="l18J8dOt-pE66eqyuZIl-82" value="" style="html=1;points=[];perimeter=orthogonalPerimeter;strokeColor=#000000;" vertex="1" parent="1">
          <mxGeometry x="725" y="1360" width="10" height="80" as="geometry" />
        </mxCell>
        <mxCell id="l18J8dOt-pE66eqyuZIl-83" value="" style="html=1;points=[];perimeter=orthogonalPerimeter;strokeColor=#000000;" vertex="1" parent="1">
          <mxGeometry x="725" y="1520" width="10" height="80" as="geometry" />
        </mxCell>
        <mxCell id="l18J8dOt-pE66eqyuZIl-84" value="" style="line;strokeWidth=1;fillColor=none;align=left;verticalAlign=middle;spacingTop=-1;spacingLeft=3;spacingRight=3;rotatable=0;labelPosition=right;points=[];portConstraint=eastwest;" vertex="1" parent="1">
          <mxGeometry x="50" y="1480" width="740" height="8" as="geometry" />
        </mxCell>
        <mxCell id="l18J8dOt-pE66eqyuZIl-85" value="" style="endArrow=open;endFill=1;endSize=12;html=1;exitX=0.132;exitY=0.12;exitDx=0;exitDy=0;exitPerimeter=0;" edge="1" parent="1" source="l18J8dOt-pE66eqyuZIl-75">
          <mxGeometry width="160" relative="1" as="geometry">
            <mxPoint x="565" y="1200" as="sourcePoint" />
            <mxPoint x="725" y="1200" as="targetPoint" />
          </mxGeometry>
        </mxCell>
        <mxCell id="l18J8dOt-pE66eqyuZIl-87" value="return" style="html=1;verticalAlign=bottom;endArrow=open;dashed=1;endSize=8;exitX=0.14;exitY=1.01;exitDx=0;exitDy=0;exitPerimeter=0;" edge="1" parent="1" source="l18J8dOt-pE66eqyuZIl-82">
          <mxGeometry x="0.0114" y="29" relative="1" as="geometry">
            <mxPoint x="640" y="1420" as="sourcePoint" />
            <mxPoint x="140" y="1441" as="targetPoint" />
            <mxPoint as="offset" />
          </mxGeometry>
        </mxCell>
        <mxCell id="l18J8dOt-pE66eqyuZIl-88" value="return" style="html=1;verticalAlign=bottom;endArrow=open;dashed=1;endSize=8;entryX=0.122;entryY=0.909;entryDx=0;entryDy=0;entryPerimeter=0;" edge="1" parent="1" target="l18J8dOt-pE66eqyuZIl-81">
          <mxGeometry x="0.0432" y="20" relative="1" as="geometry">
            <mxPoint x="725" y="1600" as="sourcePoint" />
            <mxPoint x="645" y="1600" as="targetPoint" />
            <mxPoint as="offset" />
          </mxGeometry>
        </mxCell>
        <mxCell id="l18J8dOt-pE66eqyuZIl-90" value="Alt" style="shape=umlFrame;whiteSpace=wrap;html=1;strokeColor=#000000;" vertex="1" parent="1">
          <mxGeometry x="40" y="1760" width="760" height="300" as="geometry" />
        </mxCell>
        <mxCell id="l18J8dOt-pE66eqyuZIl-92" value="[else]" style="text;html=1;align=center;verticalAlign=middle;resizable=0;points=[];autosize=1;" vertex="1" parent="1">
          <mxGeometry x="140" y="1488" width="40" height="20" as="geometry" />
        </mxCell>
        <mxCell id="l18J8dOt-pE66eqyuZIl-93" value="Eingabe eines Master-Passwortes und einer Zahlenkombination" style="text;html=1;align=center;verticalAlign=middle;resizable=0;points=[];autosize=1;" vertex="1" parent="1">
          <mxGeometry x="230" y="1180" width="360" height="20" as="geometry" />
        </mxCell>
        <mxCell id="l18J8dOt-pE66eqyuZIl-94" value="[Entsprechen die Zugangsdaten denen der geöffneten Dantenbank]" style="text;html=1;align=center;verticalAlign=middle;resizable=0;points=[];autosize=1;" vertex="1" parent="1">
          <mxGeometry x="140" y="1300" width="370" height="20" as="geometry" />
        </mxCell>
        <mxCell id="l18J8dOt-pE66eqyuZIl-95" value="Ausgabe des korrekten Master-Passwortes und&amp;nbsp; Zahlenkombination" style="text;html=1;align=center;verticalAlign=middle;resizable=0;points=[];autosize=1;" vertex="1" parent="1">
          <mxGeometry x="270" y="1420" width="380" height="20" as="geometry" />
        </mxCell>
        <mxCell id="l18J8dOt-pE66eqyuZIl-96" value="Fehlermeldung(Die Zugangsdaten sind nicht korrekt)" style="text;html=1;align=center;verticalAlign=middle;resizable=0;points=[];autosize=1;" vertex="1" parent="1">
          <mxGeometry x="295" y="1580" width="300" height="20" as="geometry" />
        </mxCell>
        <mxCell id="l18J8dOt-pE66eqyuZIl-98" value="" style="endArrow=open;endFill=1;endSize=12;html=1;entryX=0.06;entryY=0.035;entryDx=0;entryDy=0;entryPerimeter=0;" edge="1" parent="1" target="l18J8dOt-pE66eqyuZIl-97">
          <mxGeometry width="160" relative="1" as="geometry">
            <mxPoint x="140" y="1673" as="sourcePoint" />
            <mxPoint x="400" y="1750" as="targetPoint" />
          </mxGeometry>
        </mxCell>
        <mxCell id="l18J8dOt-pE66eqyuZIl-99" value="Eintrag der Zugangsdaten markieren" style="text;html=1;align=center;verticalAlign=middle;resizable=0;points=[];autosize=1;" vertex="1" parent="1">
          <mxGeometry x="325" y="1650" width="210" height="20" as="geometry" />
        </mxCell>
        <mxCell id="l18J8dOt-pE66eqyuZIl-100" value="" style="html=1;points=[];perimeter=orthogonalPerimeter;strokeColor=#000000;" vertex="1" parent="1">
          <mxGeometry x="725" y="1820" width="10" height="80" as="geometry" />
        </mxCell>
        <mxCell id="l18J8dOt-pE66eqyuZIl-101" value="[Eintrag markiert]" style="text;html=1;align=center;verticalAlign=middle;resizable=0;points=[];autosize=1;" vertex="1" parent="1">
          <mxGeometry x="135" y="1760" width="110" height="20" as="geometry" />
        </mxCell>
        <mxCell id="l18J8dOt-pE66eqyuZIl-102" value="" style="endArrow=open;endFill=1;endSize=12;html=1;" edge="1" parent="1">
          <mxGeometry width="160" relative="1" as="geometry">
            <mxPoint x="140" y="1820" as="sourcePoint" />
            <mxPoint x="725" y="1820" as="targetPoint" />
          </mxGeometry>
        </mxCell>
        <mxCell id="l18J8dOt-pE66eqyuZIl-103" value="" style="line;strokeWidth=1;fillColor=none;align=left;verticalAlign=middle;spacingTop=-1;spacingLeft=3;spacingRight=3;rotatable=0;labelPosition=right;points=[];portConstraint=eastwest;" vertex="1" parent="1">
          <mxGeometry x="40" y="1910" width="760" height="8" as="geometry" />
        </mxCell>
        <mxCell id="l18J8dOt-pE66eqyuZIl-104" value="" style="html=1;points=[];perimeter=orthogonalPerimeter;strokeColor=#000000;" vertex="1" parent="1">
          <mxGeometry x="725" y="1960" width="10" height="80" as="geometry" />
        </mxCell>
        <mxCell id="l18J8dOt-pE66eqyuZIl-105" value="[else]" style="text;html=1;align=center;verticalAlign=middle;resizable=0;points=[];autosize=1;" vertex="1" parent="1">
          <mxGeometry x="140" y="1918" width="40" height="20" as="geometry" />
        </mxCell>
        <mxCell id="l18J8dOt-pE66eqyuZIl-107" value="return" style="html=1;verticalAlign=bottom;endArrow=open;dashed=1;endSize=8;entryX=0.132;entryY=0.933;entryDx=0;entryDy=0;entryPerimeter=0;" edge="1" parent="1" target="l18J8dOt-pE66eqyuZIl-90">
          <mxGeometry x="-0.0164" y="20" relative="1" as="geometry">
            <mxPoint x="730" y="2040" as="sourcePoint" />
            <mxPoint x="650" y="2040" as="targetPoint" />
            <mxPoint as="offset" />
          </mxGeometry>
        </mxCell>
        <mxCell id="l18J8dOt-pE66eqyuZIl-108" value="neue Datenbank mit den eingegebenen Zugangsdaten angelegen" style="text;html=1;align=center;verticalAlign=middle;resizable=0;points=[];autosize=1;" vertex="1" parent="1">
          <mxGeometry x="215" y="1800" width="370" height="20" as="geometry" />
        </mxCell>
        <mxCell id="l18J8dOt-pE66eqyuZIl-110" value="Fehlermeldung" style="text;html=1;align=center;verticalAlign=middle;resizable=0;points=[];autosize=1;" vertex="1" parent="1">
          <mxGeometry x="380" y="2020" width="100" height="20" as="geometry" />
        </mxCell>
      </root>
    </mxGraphModel>
  </diagram>
</mxfile>
